# xmcd
#
# Track frame offsets: 
#        150
#        30761
#        62622
#        95917
#        135251
#        162486
#        191737
#        230882
#        268635
#        305310
#
# Disc length: 4488 seconds
#
# Revision: 0
# Processed by: cddbd v1.5.2PL0 Copyright (c) Steve Scherf et al.
# Submitted via: ExactAudioCopy v1.0b3
#
DISCID=8311860a
DTITLE=Various Artist - Best Of Trance - CD 2
DYEAR=1900
DGENRE=
TTITLE0=Sander Van Doorn - Daddyrock (Original Mix) 
TTITLE1=Amex - One Step Behind (Original Mix)
TTITLE2=Talla 2XLC - Shine 2010 (Stoneface And Terminal Remix)
TTITLE3=C-Systems - Seasons (Vocal Mix)
TTITLE4=Wavetraxx Vs. DJ Virens - Forward (Original Version)
TTITLE5=Mem - Forza (Original Mix)
TTITLE6=Andre Visior and Kay Stone - Sunrise (Ronski Speed Remix)
TTITLE7=Jonas Steur Feat. Julie Thompson - Side By Side (Orjan Nilsen 
TTITLE7=Remix)
TTITLE8=Denga and Manus - Walkin On Hills (Vengeance Mix)
TTITLE9=Cressida - Breakfast With Zeus (Original Mix)
EXTD=
EXTT0=
EXTT1=
EXTT2=
EXTT3=
EXTT4=
EXTT5=
EXTT6=
EXTT7=
EXTT8=
EXTT9=
PLAYORDER=
